<?xml version="1.0" standalone="no"?>
<!DOCTYPE svg PUBLIC "-//W3C//DTD SVG 20010904//EN"
 "http://www.w3.org/TR/2001/REC-SVG-20010904/DTD/svg10.dtd">
<svg version="1.0" xmlns="http://www.w3.org/2000/svg"
 width="319.000000pt" height="76.000000pt" viewBox="0 0 319.000000 76.000000"
 preserveAspectRatio="xMidYMid meet">

<g transform="translate(0.000000,76.000000) scale(0.100000,-0.100000)"
fill="#000000" stroke="none">
<path d="M50 389 l0 -361 128 4 c159 5 218 26 295 101 82 81 102 130 102 257
0 94 -3 110 -27 155 -30 59 -97 124 -158 155 -59 30 -160 50 -257 50 l-83 0 0
-361z m273 230 c55 -28 94 -65 120 -114 30 -56 30 -174 0 -230 -45 -85 -138
-144 -225 -145 l-48 0 0 261 0 262 56 -7 c30 -3 74 -16 97 -27z"/>
<path d="M1757 743 c-4 -3 -7 -165 -7 -360 l0 -353 55 0 55 0 0 111 0 111 43
-7 c97 -16 157 -82 157 -173 l0 -42 55 0 55 0 0 46 c0 96 -45 176 -121 215
-40 20 -40 20 -22 44 10 13 47 55 82 94 l63 71 -68 0 -69 0 -85 -97 -85 -97
-3 222 -2 222 -49 0 c-26 0 -51 -3 -54 -7z"/>
<path d="M2900 561 l0 -61 -30 0 c-28 0 -30 -2 -30 -40 0 -38 2 -40 30 -40
l30 0 0 -120 c0 -133 9 -168 56 -212 33 -30 102 -58 145 -58 28 0 29 2 29 49
0 48 -1 49 -34 55 -21 4 -45 19 -60 37 -24 29 -26 37 -26 140 l0 109 60 0 60
0 0 40 0 40 -60 0 -59 0 -3 58 -3 57 -52 3 -53 3 0 -60z"/>
<path d="M873 510 c-149 -31 -246 -167 -214 -297 17 -66 45 -108 94 -142 63
-43 109 -54 201 -49 90 5 131 21 186 74 l36 34 18 -50 18 -50 59 0 58 0 -28
78 c-92 247 -112 291 -152 330 -61 62 -179 93 -276 72z m172 -124 c88 -67 84
-191 -8 -246 -43 -27 -144 -27 -195 -1 -88 45 -98 165 -20 238 35 33 67 43
130 40 43 -2 64 -10 93 -31z"/>
<path d="M1542 491 c-115 -40 -142 -99 -142 -318 l0 -143 55 0 55 0 0 133 c0
196 16 232 110 244 l40 6 0 48 c0 49 0 49 -32 49 -18 -1 -57 -9 -86 -19z"/>
<path d="M2270 358 c1 -163 10 -218 47 -266 39 -51 93 -72 191 -72 89 0 139
15 180 53 51 47 56 71 60 255 l4 172 -56 0 -56 0 0 -127 c-1 -195 -16 -235
-98 -254 -53 -12 -108 6 -136 44 -19 25 -21 45 -25 183 l-3 154 -54 0 -54 0 0
-142z"/>
</g>
</svg>


